<svg width="1643" height="532" viewBox="0 0 1643 532" fill="none" xmlns="http://www.w3.org/2000/svg">
<path d="M157.7 -673.6C133.3 -657.5 108.3 -641.4 84.1001 -625.8C-21.0999 -558 -130 -487.9 -226 -396.3C-263.3 -360.1 -309.6 -310.4 -335.9 -246.5C-353.1 -205.5 -356.9 -156.9 -346.7 -109.7C-335.8 -61.4 -316.1 -17.8 -297.2 24.4C-286.2 48.6 -275 73.6998 -265.5 99.3998C-243.3 159.5 -248.9 235.1 -280 296.9C-320.1 374.8 -384.5 441.3 -482.6 506.1C-485.9 508.1 -489.3 510.8 -492.6 513.4C-498.8 518.3 -505.2 523.4 -512.2 524.5C-451.2 468.5 -411.4 396.7 -403.2 327.3C-397.5 277.5 -410.2 227.5 -442.2 174.6C-507.4 56.1 -528.4 -57.6001 -504.4 -163.4C-474.4 -295.8 -375.6 -394.7 -298 -454.2C-174.4 -547.6 -25.2999 -619.4 157.7 -673.6Z" fill="#E92D2F"/>
<g opacity="0.6">
<g opacity="0.5">
<path d="M959.3 -1976.3C1095.8 -1868.7 1118.3 -1716 1019.5 -1567.3C929.8 -1429 755.2 -1293.8 486.1 -1153.8C323.8 -1069.1 136.2 -988 -104 -898.6C-326.4 -815.7 -578.8 -716 -758.2 -582.4C-830.1 -530.5 -883.7 -471.1 -913.1 -410.5C-942.9 -349.1 -947.6 -286.5 -927 -229.5C-890 -117.4 -794.3 -18.8999 -701.8 76.3C-629.2 151 -554.1 228.3 -508.1 311.5C-681.6 210.9 -818.2 124.1 -937.9 38.6C-1064.5 -52.7 -1203.5 -163.7 -1275.3 -294C-1326.8 -392.3 -1314.5 -491 -1240.8 -572.2C-1158.2 -664.4 -1012.2 -737.8 -869.8 -805C-678.5 -891.7 -468.9 -968 -266.3 -1041.7C-48.3 -1121 176.9 -1203 379.3 -1298C627.3 -1413.5 796.2 -1536 881.3 -1662C964 -1777.1 965.7 -1896.1 959.3 -1976.3Z" stroke="#E92D2F" stroke-width="2.4613" stroke-miterlimit="10"/>
<path d="M1641.8 -1101.9C1571.3 -1080.8 1499.4 -1059.8 1429.7 -1039.4C1126.3 -950.7 812.4 -858.9 535.5 -739.1C427.9 -691.8 294.5 -626.8 218.7 -543.1C169.2 -489.5 158.2 -425.9 187.6 -364.1C219.1 -300.9 275.7 -243.8 330.4 -188.6C362 -156.9 394.5 -124.1 421.7 -90.5001C485.6 -11.9001 469.6 87.0998 379.9 167.9C264.4 269.8 78.7001 356.7 -204.1 441.6C-213.8 444.2 -223.5 447.8 -233 451.1C-250.8 457.6 -269.3 464.2 -289.6 465.7C-113.6 392.5 1.00014 298.5 24.8001 207.8C41.3001 142.6 4.5001 77.1999 -87.5999 7.99994C-275.6 -147.1 -336 -295.8 -266.8 -434.2C-180.3 -607.5 104.7 -736.8 328.5 -814.7C684.3 -937 1114 -1031 1641.8 -1101.9Z" stroke="#E92D2F" stroke-width="2.4613" stroke-miterlimit="10"/>
</g>
<g opacity="0.5238">
<path d="M909.8 -1946.1C1042 -1839.7 1063.1 -1689.2 968.1 -1541.7C880.4 -1405.4 712.1 -1271.3 451.3 -1132.8C294 -1049.1 112.3 -968.9 -120.4 -880.5C-335.9 -798.5 -579.4 -698.6 -754.3 -567.8C-823.6 -516 -875.9 -457.7 -904.4 -397.8C-933.3 -337.1 -937.1 -275.5 -917.9 -218.8C-880.5 -108.5 -789.3 -10.6 -699.7 83.6C-629.4 157.5 -556.6 233.9 -512.1 316.2C-680.2 216.7 -812.8 131.2 -928.6 46.2999C-1051.4 -43.7001 -1187.3 -153 -1255.5 -282.6C-1306.4 -379.2 -1293.2 -477.2 -1222.1 -557.6C-1141.7 -648.5 -1000.6 -721.3 -862.6 -787.8C-677.3 -873.6 -474.2 -948.9 -277.9 -1021.9C-66.7 -1100.3 151.5 -1181.4 347.6 -1275.3C587.9 -1389.5 751.5 -1510.6 834 -1635.3C914.4 -1749.1 916.1 -1866.8 909.8 -1946.1Z" stroke="#E92D2F" stroke-width="2.8129" stroke-miterlimit="10"/>
<path d="M1571.1 -1081.5C1502.8 -1060.6 1433.2 -1039.9 1365.6 -1019.7C1071.6 -932 767.1 -842.1 499.3 -722.8C394.9 -676.3 266.2 -611.4 192.3 -529C144.6 -475.8 133.1 -412.9 162.2 -352C192.2 -289.2 247.6 -233.1 300.5 -178.5C331.1 -147.2 362.6 -114.7 389 -81.5001C450.9 -3.80013 435.8 94.4999 348.5 174C237.1 275.3 56.7 360.7 -217.4 444.6C-226.8 447.2 -236.2 450.7 -245.4 454C-262.7 460.3 -280.6 466.9 -300.2 468.4C-129.7 396 -18.2 303.2 4.5 213.4C20.8 149 -15.2 84.1999 -104.4 15.8999C-286.6 -137.4 -345.1 -284.5 -278.1 -421.3C-194.3 -592.6 81.7 -720.9 298.6 -797.5C643.2 -919.2 1059.8 -1011.4 1571.1 -1081.5Z" stroke="#E92D2F" stroke-width="2.8129" stroke-miterlimit="10"/>
</g>
<g opacity="0.5476">
<path d="M860.4 -1915.9C988.4 -1810.7 1008.7 -1661.9 916.8 -1516.1C831.9 -1381.4 669 -1248.7 416.6 -1111.9C264.4 -1029.1 88.5 -949.8 -136.8 -862.4C-345.3 -781.3 -581 -682.6 -750.3 -553.3C-817.4 -502 -868 -444.5 -895.5 -385.3C-923.5 -325.3 -927.1 -264.3 -908.5 -208.3C-872.3 -99.2001 -784 -2.40005 -697.3 90.7C-629.2 163.8 -558.8 239.3 -515.7 320.6C-678.4 222.2 -806.7 137.7 -918.8 53.8C-1037.7 -35.2 -1169.2 -143.3 -1235.2 -271.4C-1284.5 -367 -1271.7 -463.8 -1202.8 -543.3C-1125 -633.2 -988.4 -705.1 -854.9 -770.9C-675.5 -855.7 -478.9 -930.2 -289 -1002.3C-84.5999 -1079.8 126.7 -1160 316.4 -1252.8C549 -1365.7 707.3 -1485.4 787.2 -1608.7C864.8 -1721.1 866.4 -1837.5 860.4 -1915.9Z" stroke="#E92D2F" stroke-width="3.1645" stroke-miterlimit="10"/>
<path d="M1500.5 -1061.1C1434.4 -1040.5 1367 -1020 1301.6 -1000C1017 -913.3 722.3 -824.4 463.1 -706.5C362.1 -660.6 237.5 -596.4 166 -514.9C119.8 -462.3 108.7 -400.1 136.8 -340C165.8 -277.9 219.4 -222.4 270.7 -168.5C300.3 -137.5 330.9 -105.4 356.3 -72.6C416.2 4.20003 401.6 101.4 317.1 180C209.3 280.2 34.7001 364.6 -230.6 447.6C-239.7 450.2 -248.8 453.6 -257.7 456.9C-274.4 463.2 -291.8 469.7 -310.8 471.1C-145.8 399.5 -37.9 307.8 -15.9 219C-0.199964 155.3 -35 91.2999 -121.3 23.7C-297.6 -127.9 -354.2 -273.3 -289.4 -408.6C-208.3 -578 58.8001 -704.8 268.8 -780.5C602.3 -900.7 1005.5 -991.8 1500.5 -1061.1Z" stroke="#E92D2F" stroke-width="3.1645" stroke-miterlimit="10"/>
</g>
<g opacity="0.5714">
<path d="M810.9 -1885.7C934.6 -1781.7 954.3 -1634.6 865.5 -1490.5C783.4 -1357.3 625.9 -1226.2 381.9 -1090.9C234.7 -1009.1 64.6 -930.7 -153.1 -844.3C-354.7 -764.2 -582.6 -666.6 -746.3 -538.7C-811.1 -488 -860.1 -431.1 -886.7 -372.6C-913.8 -313.3 -917.3 -253 -899.3 -197.7C-864.3 -89.9001 -779 5.79978 -695.1 97.8998C-629.3 170.1 -561.2 244.8 -519.5 325.2C-676.8 228 -800.9 144.4 -909.2 61.3999C-1024.2 -26.6001 -1151.3 -133.4 -1215.1 -260C-1262.7 -354.5 -1250.4 -450.2 -1183.8 -528.8C-1108.6 -617.6 -976.5 -688.8 -847.4 -753.8C-674 -837.6 -483.9 -911.3 -300.3 -982.6C-102.7 -1059.2 101.6 -1138.5 285 -1230.2C509.9 -1341.8 663 -1460.2 740.2 -1582C815.2 -1693.2 816.8 -1808.2 810.9 -1885.7Z" stroke="#E92D2F" stroke-width="3.5161" stroke-miterlimit="10"/>
<path d="M1429.8 -1040.7C1365.9 -1020.3 1300.7 -1000 1237.5 -980.3C962.4 -894.6 677.4 -806.7 426.8 -690.1C329.1 -644.7 208.6 -581.3 139.5 -500.7C94.9001 -448.7 84.1001 -387.2 111.3 -327.8C139.3 -266.5 191.2 -211.6 240.7 -158.2C269.3 -127.6 298.9 -95.8001 323.5 -63.4001C381.4 12.4999 367.3 108.6 285.6 186.3C181.4 285.3 12.5 368.8 -243.9 450.8C-252.7 453.4 -261.5 456.7 -270.1 460C-286.3 466.2 -303 472.6 -321.4 474.1C-161.9 403.3 -57.5 312.7 -36.3 224.9C-21.1 162 -54.6999 98.6999 -138.2 31.7999C-308.7 -118 -363.4 -261.7 -300.7 -395.5C-222.2 -562.9 36.0001 -688.3 239 -763.2C561.4 -882.1 951.3 -972.2 1429.8 -1040.7Z" stroke="#E92D2F" stroke-width="3.5161" stroke-miterlimit="10"/>
</g>
<g opacity="0.5952">
<path d="M761.5 -1855.5C881 -1752.7 900 -1607.3 814.2 -1464.9C734.9 -1333.2 582.8 -1203.7 347.2 -1070C205.1 -989.1 40.8001 -911.6 -169.5 -826.3C-364.2 -747.1 -584.2 -650.7 -742.3 -524.3C-804.9 -474.2 -852.2 -417.9 -877.9 -360.1C-904 -301.4 -907.4 -241.9 -890.1 -187.2C-856.3 -80.6 -773.9 13.8999 -692.9 104.9C-629.4 176.3 -563.6 250.1 -523.3 329.6C-675.3 233.6 -795.1 151 -899.7 69C-1010.7 -18 -1133.5 -123.6 -1195.1 -248.7C-1241.1 -342.1 -1229.2 -436.7 -1164.9 -514.4C-1092.3 -602.2 -964.7 -672.5 -840.1 -736.8C-672.6 -819.6 -489.1 -892.5 -311.7 -962.9C-120.9 -1038.6 76.4001 -1117 253.5 -1207.7C470.7 -1318 618.5 -1435 693 -1555.4C765.6 -1665.2 767.1 -1778.9 761.5 -1855.5Z" stroke="#E92D2F" stroke-width="3.8678" stroke-miterlimit="10"/>
<path d="M1359.1 -1020.3C1297.4 -1000.2 1234.4 -980.1 1173.4 -960.6C907.7 -875.9 632.5 -789 390.5 -673.8C296.2 -628.9 179.8 -566.2 113.1 -486.6C70.0001 -435.2 59.6001 -374.5 85.9001 -315.7C113 -255.1 163 -200.8 210.9 -148.1C238.6 -117.8 267.1 -86.4 290.9 -54.4C346.8 20.6 333.2 115.6 254.3 192.4C153.7 290.3 -9.39989 372.8 -257.1 453.8C-265.6 456.3 -274.1 459.7 -282.4 462.9C-298 469 -314.2 475.4 -332 476.8C-177.9 406.8 -77.1999 317.2 -56.6999 230.5C-41.9999 168.3 -74.4999 105.7 -155.1 39.7C-319.7 -108.4 -372.6 -250.4 -312 -382.6C-236.2 -548.1 13.1 -672 209.2 -746C520.5 -863.6 897 -952.6 1359.1 -1020.3Z" stroke="#E92D2F" stroke-width="3.8678" stroke-miterlimit="10"/>
</g>
<g opacity="0.619">
<path d="M712.1 -1825.3C827.3 -1723.7 845.6 -1580 762.9 -1439.3C686.4 -1309.2 539.7 -1181.1 312.4 -1049C175.3 -969.1 16.9 -892.5 -185.9 -808.1C-373.7 -729.8 -585.8 -634.6 -738.4 -509.6C-798.8 -460.1 -844.4 -404.5 -869.2 -347.3C-894.4 -289.3 -897.7 -230.5 -880.9 -176.4C-848.3 -71 -768.8 22.4 -690.8 112.3C-629.5 182.9 -566.1 255.7 -527.3 334.3C-673.8 239.3 -789.4 157.7 -890.3 76.7C-997.4 -9.30005 -1115.8 -113.6 -1175.3 -237.3C-1219.7 -329.6 -1208.1 -423.1 -1146.1 -499.9C-1076 -586.7 -953.1 -656.2 -832.8 -719.6C-671.3 -801.5 -494.3 -873.4 -323.2 -943.1C-139.1 -1017.9 51.1001 -1095.3 222 -1185C431.5 -1294 574 -1409.6 645.9 -1528.6C716 -1637.2 717.5 -1749.6 712.1 -1825.3Z" stroke="#E92D2F" stroke-width="4.2194" stroke-miterlimit="10"/>
<path d="M1288.4 -999.9C1228.9 -980 1168.2 -960.2 1109.3 -940.9C853.1 -857.2 587.6 -771.3 354.2 -657.5C263.2 -613.1 151 -551.2 86.6 -472.5C45.1 -421.7 35.0001 -361.7 60.3001 -303.6C86.4001 -243.7 134.7 -190.1 180.9 -138C207.6 -108.1 235.1 -77.1001 258 -45.4001C312 28.7999 298.8 122.6 222.7 198.5C125.7 295.2 -31.5999 376.7 -270.5 456.8C-278.7 459.3 -286.9 462.6 -294.9 465.8C-310 471.9 -325.6 478.1 -342.7 479.5C-194.1 410.4 -96.8999 321.8 -77.1999 236.1C-62.9999 174.6 -94.3999 112.8 -172.1 47.4999C-330.9 -98.9001 -381.9 -239.2 -323.5 -369.9C-250.4 -533.5 -9.89999 -655.9 179.2 -729C479.6 -845 842.8 -933 1288.4 -999.9Z" stroke="#E92D2F" stroke-width="4.2194" stroke-miterlimit="10"/>
</g>
<g opacity="0.6429">
<path d="M662.6 -1795.1C773.6 -1694.7 791.2 -1552.7 711.6 -1413.7C637.9 -1285 496.6 -1158.5 277.7 -1028C145.7 -949 -6.89999 -873.4 -202.3 -790C-383.2 -712.6 -587.5 -618.6 -734.4 -495.1C-792.5 -446.2 -836.5 -391.2 -860.4 -334.8C-884.7 -277.5 -887.8 -219.4 -871.7 -166C-840.3 -61.9001 -763.8 30.3999 -688.6 119.3C-629.6 189 -568.5 261 -531.1 338.7C-672.2 244.8 -783.5 164.2 -880.7 84.1C-983.7 -0.700027 -1097.8 -103.9 -1155 -226C-1197.8 -317.2 -1186.6 -409.6 -1126.9 -485.4C-1059.4 -571.2 -941 -639.8 -825.1 -702.5C-669.5 -783.4 -499 -854.5 -334.3 -923.3C-157 -997.2 26.2 -1073.7 190.8 -1162.3C392.5 -1270.2 529.8 -1384.4 599 -1502C666.4 -1609.3 667.8 -1720.3 662.6 -1795.1Z" stroke="#E92D2F" stroke-width="4.571" stroke-miterlimit="10"/>
<path d="M1217.8 -979.5C1160.5 -959.8 1102 -940.2 1045.3 -921.2C798.5 -838.5 542.8 -753.6 318 -641.2C230.3 -597.4 122.3 -536.2 60.3001 -458.4C20.3001 -408.2 10.6001 -348.9 35.0001 -291.5C60.1001 -232.3 106.7 -179.3 151.1 -127.8C176.8 -98.2002 203.3 -67.6002 225.4 -36.3002C277.4 36.9998 264.7 129.7 191.4 204.7C97.9001 300.2 -53.5999 380.8 -283.6 460C-291.5 462.5 -299.4 465.7 -307.1 468.9C-321.6 474.9 -336.7 481.1 -353.1 482.5C-210 414.2 -116.4 326.7 -97.3 241.9C-83.6 181.1 -113.8 120.1 -188.7 55.5999C-341.6 -89.0002 -390.7 -227.7 -334.5 -356.8C-264.1 -518.4 -32.5 -639.4 149.7 -711.6C438.7 -826.4 788.5 -913.4 1217.8 -979.5Z" stroke="#E92D2F" stroke-width="4.571" stroke-miterlimit="10"/>
</g>
<g opacity="0.6667">
<path d="M613.2 -1764.9C720 -1665.8 736.9 -1525.4 660.3 -1388.1C589.4 -1261 453.5 -1136 243 -1007C116 -929 -30.6999 -854.2 -218.6 -771.8C-392.6 -695.4 -589 -602.5 -730.4 -480.4C-786.3 -432.1 -828.6 -377.8 -851.5 -322C-874.9 -265.4 -877.9 -207.9 -862.4 -155.2C-832.2 -52.2999 -758.6 38.9001 -686.3 126.6C-629.5 195.5 -570.8 266.6 -534.8 343.3C-670.5 250.6 -777.6 170.9 -871 91.8C-970.2 7.90005 -1079.9 -94.1 -1135 -214.7C-1176.1 -304.9 -1165.4 -396.1 -1108 -471C-1043.1 -555.7 -929.2 -623.6 -817.8 -685.5C-668.2 -765.4 -504.2 -835.7 -345.7 -903.6C-175.2 -976.6 1.00005 -1052.2 159.3 -1139.7C353.3 -1246.1 485.4 -1359 552 -1475.2C616.9 -1581.3 618.2 -1691 613.2 -1764.9Z" stroke="#E92D2F" stroke-width="4.9226" stroke-miterlimit="10"/>
<path d="M1147.1 -959.1C1092 -939.7 1035.7 -920.3 981.2 -901.5C743.8 -819.8 497.9 -735.9 281.7 -624.8C197.4 -581.5 93.5001 -521 33.9001 -444.2C-4.59991 -394.6 -13.9 -336 9.60004 -279.3C33.8 -220.8 78.5001 -168.5 121.3 -117.6C146 -88.4 171.5 -58.1 192.7 -27.2C242.7 45.2001 230.5 136.8 160 210.9C70.1001 305.3 -75.6 384.9 -296.9 463.1C-304.5 465.5 -312.1 468.7 -319.5 471.9C-333.5 477.8 -347.9 484 -363.8 485.3C-226.2 417.8 -136.1 331.3 -117.8 247.6C-104.7 187.6 -133.7 127.2 -205.8 63.5C-352.9 -79.5 -400.1 -216.5 -346 -344C-278.3 -503.7 -55.6 -623.2 119.7 -694.6C397.8 -807.9 734.2 -893.8 1147.1 -959.1Z" stroke="#E92D2F" stroke-width="4.9226" stroke-miterlimit="10"/>
</g>
<g opacity="0.6905">
<path d="M563.7 -1734.7C666.2 -1636.8 682.5 -1498.1 608.9 -1362.5C540.9 -1237 410.4 -1113.5 208.2 -986.1C86.2999 -909 -54.6 -835.2 -235.1 -753.8C-402.1 -678.3 -590.8 -586.5 -726.5 -466C-780.2 -418.3 -820.8 -364.6 -842.8 -309.5C-865.2 -253.6 -868.1 -196.8 -853.2 -144.7C-824.2 -43.0001 -753.5 46.9998 -684.1 133.7C-629.6 201.7 -573.1 272 -538.6 347.8C-668.9 256.2 -771.8 177.4 -861.5 99.3998C-956.8 16.4998 -1062.1 -84.2001 -1115 -203.4C-1154.5 -292.5 -1144.2 -382.6 -1089.1 -456.6C-1026.8 -540.3 -917.4 -607.3 -810.4 -668.5C-666.7 -747.4 -509.3 -816.8 -357.1 -884C-193.4 -956.2 -24.2 -1030.8 127.8 -1117.3C314.1 -1222.4 440.9 -1333.9 504.9 -1448.7C567.3 -1553.3 568.6 -1661.7 563.7 -1734.7Z" stroke="#E92D2F" stroke-width="5.2742" stroke-miterlimit="10"/>
<path d="M1076.4 -938.7C1023.5 -919.5 969.5 -900.4 917.1 -881.8C689.2 -801.1 453 -718.2 245.4 -608.5C164.4 -565.7 64.7001 -506 7.40005 -430.1C-29.4999 -381.1 -38.5 -323.3 -16 -267.2C7.20003 -209.5 50.2 -157.7 91.2 -107.5C114.9 -78.7001 139.4 -48.7 159.8 -18.2C207.8 53.3 196.1 143.8 128.4 217C42.1001 310.2 -97.8 388.9 -310.3 466.1C-317.6 468.5 -324.9 471.7 -332 474.8C-345.4 480.6 -359.3 486.7 -374.5 488C-242.3 421.3 -155.9 335.9 -138.3 253.2C-125.7 193.9 -153.6 134.3 -222.8 71.3998C-364 -69.7002 -409.4 -205.1 -357.4 -331.1C-292.4 -488.8 -78.5 -606.9 89.7 -677.4C356.9 -789.3 680 -874.2 1076.4 -938.7Z" stroke="#E92D2F" stroke-width="5.2742" stroke-miterlimit="10"/>
</g>
<g opacity="0.7143">
<path d="M514.3 -1704.5C612.6 -1607.8 628.1 -1470.8 557.6 -1336.8C492.4 -1212.8 367.3 -1090.9 173.5 -965.1C56.6001 -889 -78.4999 -816 -251.4 -735.7C-411.5 -661.1 -592.3 -570.5 -722.5 -451.4C-773.9 -404.3 -812.9 -351.3 -834 -296.9C-855.5 -241.7 -858.3 -185.6 -844 -134.1C-816.2 -33.7 -748.4 55.1999 -681.9 140.9C-629.6 208.1 -575.5 277.5 -542.4 352.4C-667.3 261.9 -765.9 184.1 -851.9 107C-943.2 25.1 -1044.2 -74.4 -1094.9 -192.1C-1132.8 -280.1 -1122.9 -369.1 -1070 -442.2C-1010.2 -524.9 -905.4 -591 -802.9 -651.5C-665.2 -729.5 -514.2 -798 -368.4 -864.3C-211.5 -935.6 -49.1999 -1009.3 96.4001 -1094.7C275 -1198.6 396.6 -1308.6 457.9 -1422C517.7 -1525.3 518.9 -1632.4 514.3 -1704.5Z" stroke="#E92D2F" stroke-width="5.6258" stroke-miterlimit="10"/>
<path d="M1005.8 -918.3C955.1 -899.3 903.3 -880.5 853.1 -862.1C634.6 -782.4 408.2 -700.5 209.3 -592.2C131.6 -550 36.0001 -491 -18.9999 -416C-54.3999 -367.6 -62.9999 -310.5 -41.3999 -255.1C-19.1999 -198.1 22.0001 -147 61.4001 -97.4C84.1001 -68.9 107.6 -39.4 127.2 -9.19995C173.2 61.4 162.1 150.8 97.1001 223.1C14.4001 315.1 -119.8 392.9 -323.4 469.2C-330.4 471.6 -337.4 474.7 -344.2 477.8C-357.1 483.6 -370.4 489.6 -385 490.9C-258.3 425 -175.4 340.7 -158.6 259C-146.5 200.4 -173.2 141.6 -239.6 79.3999C-375 -60.0001 -418.5 -193.7 -368.7 -318.1C-306.4 -473.9 -101.4 -590.5 59.9001 -660.1C316 -770.8 625.7 -854.6 1005.8 -918.3Z" stroke="#E92D2F" stroke-width="5.6258" stroke-miterlimit="10"/>
</g>
<g opacity="0.7381">
<path d="M464.9 -1674.2C558.9 -1578.7 573.8 -1443.4 506.4 -1311.1C444 -1188.6 324.3 -1068.3 138.9 -944C27.1 -868.8 -102.2 -796.8 -267.7 -717.4C-420.9 -643.8 -593.9 -554.3 -718.4 -436.7C-767.6 -390.2 -804.9 -337.8 -825.1 -284.1C-845.7 -229.6 -848.3 -174.2 -834.7 -123.4C-808.1 -24.2 -743.3 63.6 -679.6 148.1C-629.6 214.5 -577.8 283 -546.2 356.9C-665.7 267.6 -760.1 190.7 -842.3 114.6C-929.7 33.7 -1026.3 -64.5001 -1074.8 -180.7C-1111.1 -267.6 -1101.6 -355.5 -1051 -427.7C-993.8 -509.4 -893.5 -574.7 -795.4 -634.4C-663.6 -711.4 -519.2 -779.1 -379.6 -844.6C-229.4 -915 -74.2 -987.8 65.2 -1072.1C236 -1174.6 352.3 -1283.3 411 -1395.2C468.1 -1497.4 469.3 -1603.1 464.9 -1674.2Z" stroke="#E92D2F" stroke-width="5.9774" stroke-miterlimit="10"/>
<path d="M935.1 -898C886.5 -879.3 837 -860.6 789 -842.5C579.9 -763.8 363.3 -682.9 173 -575.9C98.7 -534.2 7.29992 -476 -45.3001 -401.9C-79.2001 -354.2 -87.4 -297.7 -66.7 -243C-45.4 -186.7 -6.00008 -136.2 31.6999 -87.2C53.4999 -59.1 75.8999 -29.9 94.5999 -0.100037C138.6 69.6 128 157.9 65.8 229.3C-13.3 320.2 -141.7 397 -336.6 472.3C-343.3 474.7 -350 477.7 -356.5 480.8C-368.8 486.5 -381.5 492.4 -395.5 493.7C-274.3 428.7 -195 345.4 -178.9 264.7C-167.3 206.8 -192.9 148.7 -256.4 87.3C-386 -50.4 -427.5 -182.4 -379.9 -305.3C-320.3 -459.1 -124.1 -574.3 30.1999 -643.1C275.2 -752.2 571.5 -835 935.1 -898Z" stroke="#E92D2F" stroke-width="5.9774" stroke-miterlimit="10"/>
</g>
<g opacity="0.7619">
<path d="M415.4 -1644C505.2 -1549.7 519.4 -1416.1 455 -1285.5C395.4 -1164.6 281.2 -1045.7 104.1 -923C-2.70003 -848.8 -126.1 -777.7 -284.1 -699.3C-430.4 -626.6 -595.5 -538.3 -714.5 -422.1C-761.5 -376.2 -797.1 -324.5 -816.4 -271.4C-836 -217.6 -838.6 -162.8 -825.5 -112.7C-800.1 -14.8 -738.2 71.8998 -677.4 155.4C-629.7 220.9 -580.2 288.6 -550 361.6C-664.1 273.4 -754.2 197.5 -832.8 122.3C-916.3 42.4 -1008.5 -54.6001 -1054.8 -169.3C-1089.4 -255.1 -1080.4 -341.9 -1032.1 -413.1C-977.5 -493.7 -881.7 -558.2 -788 -617.2C-662.2 -693.2 -524.3 -760.1 -391 -824.7C-247.6 -894.2 -99.4001 -966.1 33.7 -1049.3C196.9 -1150.7 308 -1258 364 -1368.6C418.5 -1469.4 419.6 -1573.8 415.4 -1644Z" stroke="#E92D2F" stroke-width="6.3291" stroke-miterlimit="10"/>
<path d="M864.4 -877.6C818 -859.1 770.7 -840.7 724.9 -822.8C525.3 -745.1 318.4 -665.2 136.7 -559.6C65.7999 -518.4 -21.5 -460.9 -71.7 -387.8C-104 -340.7 -111.9 -284.9 -92.2 -230.9C-71.9 -175.3 -34.2001 -125.5 1.69995 -77.1C22.5 -49.3 43.9 -20.5 61.8 8.89996C103.8 77.8 93.7001 164.9 34.3 235.4C-41.2 325.1 -163.8 400.9 -349.9 475.3C-356.3 477.6 -362.7 480.7 -368.9 483.7C-380.6 489.3 -392.8 495.2 -406.1 496.5C-290.3 432.3 -214.6 350 -199.2 270.4C-188.2 213.3 -212.6 155.9 -273.2 95.3C-396.9 -40.6 -436.6 -171 -391.1 -292.3C-334.2 -444.2 -146.9 -557.9 0.5 -625.8C234.3 -733.7 517.2 -815.4 864.4 -877.6Z" stroke="#E92D2F" stroke-width="6.3291" stroke-miterlimit="10"/>
</g>
<g opacity="0.7857">
<path d="M366 -1613.8C451.5 -1520.7 465.1 -1388.8 403.7 -1259.9C346.9 -1140.5 238.1 -1023.2 69.4001 -902.1C-32.2999 -828.8 -149.9 -758.6 -300.4 -681.3C-439.8 -609.5 -597 -522.4 -710.4 -407.7C-755.1 -362.4 -789.1 -311.3 -807.5 -258.9C-826.2 -205.8 -828.6 -151.7 -816.2 -102.2C-791.9 -5.49995 -733 80 -675.1 162.5C-629.6 227.2 -582.5 294 -553.7 366C-662.4 278.9 -748.3 204 -823.1 129.8C-902.6 51 -990.5 -44.9001 -1034.6 -158.1C-1067.6 -242.9 -1058.9 -328.5 -1013 -398.8C-961 -478.4 -869.7 -542.1 -780.5 -600.3C-660.6 -675.4 -529.2 -741.3 -402.3 -805.2C-265.7 -873.8 -124.5 -944.8 2.30017 -1027C157.8 -1127 263.6 -1232.9 316.9 -1342C368.9 -1441.4 370 -1544.5 366 -1613.8Z" stroke="#E92D2F" stroke-width="6.6807" stroke-miterlimit="10"/>
<path d="M793.7 -857.2C749.5 -838.9 704.5 -820.8 660.8 -803.1C470.6 -726.3 273.5 -647.5 100.4 -543.3C32.8001 -502.6 -50.3999 -445.9 -98.1999 -373.7C-129 -327.2 -136.5 -272.2 -117.7 -218.8C-98.3999 -163.9 -62.4999 -114.7 -28.1999 -67.0001C-8.39989 -39.6001 12.0001 -11.1 29.0001 17.9C69.0001 85.9 59.4001 171.9 2.80011 241.5C-69.0999 330.1 -186 404.9 -363.2 478.3C-369.3 480.6 -375.4 483.6 -381.3 486.5C-392.5 492.1 -404.1 497.8 -416.8 499.1C-306.5 435.7 -234.4 354.5 -219.7 275.9C-209.2 219.5 -232.4 162.9 -290.2 103C-408.1 -31.2001 -445.9 -159.9 -402.5 -279.6C-348.3 -429.5 -169.8 -541.8 -29.4 -608.8C193.4 -715.1 463 -795.8 793.7 -857.2Z" stroke="#E92D2F" stroke-width="6.6807" stroke-miterlimit="10"/>
</g>
<g opacity="0.8095">
<path d="M316.5 -1583.6C397.8 -1491.7 410.6 -1361.5 352.4 -1234.3C298.4 -1116.4 195 -1000.7 34.7 -881.1C-62 -808.8 -173.7 -739.5 -316.8 -663.1C-449.3 -592.3 -598.7 -506.3 -706.5 -393C-749 -348.3 -781.3 -297.9 -798.7 -246.2C-816.5 -193.7 -818.8 -140.4 -807 -91.6001C-783.9 3.8999 -727.9 88.3 -672.9 169.6C-629.7 233.4 -584.9 299.4 -557.5 370.5C-660.8 284.5 -742.4 210.6 -813.5 137.4C-889.1 59.5998 -972.6 -35.0001 -1014.5 -146.7C-1045.9 -230.4 -1037.6 -314.9 -993.9 -384.3C-944.4 -462.9 -857.7 -525.7 -772.9 -583.1C-659 -657.2 -534.1 -722.3 -413.5 -785.3C-283.7 -853 -149.5 -923.1 -29.0001 -1004.2C118.7 -1102.9 219.3 -1207.5 270 -1315.1C319.3 -1413.5 320.3 -1515.2 316.5 -1583.6Z" stroke="#E92D2F" stroke-width="7.0323" stroke-miterlimit="10"/>
<path d="M723.1 -836.8C681.1 -818.8 638.3 -800.9 596.8 -783.4C416.1 -707.6 228.7 -629.9 64.1999 -526.9C-0.000106812 -486.7 -79.1001 -430.8 -124.5 -359.5C-153.8 -313.6 -160.9 -259.3 -143 -206.6C-124.6 -152.5 -90.5001 -103.9 -58.0001 -56.7001C-39.2001 -29.6001 -19.8 -1.60015 -3.60004 27.0999C34.5 94.1999 25.2999 179 -28.5001 247.8C-96.9001 335.2 -207.9 409.1 -376.4 481.6C-382.2 483.9 -388 486.8 -393.6 489.7C-404.2 495.2 -415.2 500.9 -427.3 502.1C-322.5 439.5 -253.9 359.4 -240 281.8C-230 226.1 -252.1 170.2 -307 111.2C-419 -21.2002 -455 -148.3 -413.8 -266.5C-362.3 -414.5 -192.7 -525.3 -59.2 -591.5C152.5 -696.5 408.7 -776.2 723.1 -836.8Z" stroke="#E92D2F" stroke-width="7.0323" stroke-miterlimit="10"/>
</g>
<g opacity="0.8333">
<path d="M267.1 -1553.4C344.1 -1462.7 356.3 -1334.2 301.1 -1208.7C249.9 -1092.4 151.9 -978.1 6.10352e-05 -860.2C-91.5999 -788.8 -197.5 -720.4 -333.1 -645.1C-458.6 -575.2 -600.2 -490.4 -702.4 -378.6C-742.7 -334.5 -773.3 -284.7 -789.8 -233.7C-806.7 -181.9 -808.8 -129.3 -797.6 -81.1C-775.7 13.1 -722.7 96.3999 -670.5 176.7C-629.5 239.7 -587.1 304.8 -561.2 375C-659.1 290.2 -736.5 217.2 -803.9 144.9C-875.5 68.0999 -954.7 -25.3 -994.4 -135.5C-1024.1 -218.1 -1016.3 -301.5 -974.9 -370C-928 -447.6 -845.8 -509.6 -765.5 -566.2C-657.5 -639.3 -539.2 -703.6 -424.8 -765.8C-301.8 -832.6 -174.6 -901.8 -60.4 -981.8C79.6 -1079.2 174.9 -1182.4 223 -1288.7C269.7 -1385.5 270.7 -1485.9 267.1 -1553.4Z" stroke="#E92D2F" stroke-width="7.3839" stroke-miterlimit="10"/>
<path d="M652.4 -816.4C612.6 -798.6 572 -780.9 532.7 -763.7C361.4 -688.9 183.8 -612.2 27.9001 -510.6C-32.9999 -470.9 -107.9 -415.8 -151 -345.4C-178.7 -300.1 -185.5 -246.5 -168.6 -194.5C-151.2 -141.1 -118.9 -93.1 -87.9999 -46.6C-70.1999 -19.9 -51.7999 7.79998 -36.3999 36.1C-0.299934 102.3 -8.99991 186 -59.9999 253.9C-124.8 340.1 -230 413.1 -389.7 484.6C-395.2 486.8 -400.7 489.8 -406 492.6C-416.1 498 -426.5 503.6 -438 504.9C-338.7 443.2 -273.7 364 -260.5 287.5C-251 232.6 -272 177.4 -324 119.1C-430.2 -11.5999 -464.2 -137 -425.2 -253.6C-376.4 -399.7 -215.7 -509 -89.0999 -574.3C111.6 -678 354.5 -756.6 652.4 -816.4Z" stroke="#E92D2F" stroke-width="7.3839" stroke-miterlimit="10"/>
</g>
<g opacity="0.8571">
<path d="M217.6 -1523.2C290.4 -1433.7 301.9 -1306.9 249.7 -1183.1C201.3 -1068.3 108.7 -955.6 -34.8 -839.2C-121.4 -768.8 -221.5 -701.3 -349.6 -626.9C-468.2 -557.9 -602 -474.3 -698.6 -363.9C-736.6 -320.4 -765.6 -271.3 -781.2 -220.9C-797.1 -169.8 -799.2 -117.9 -788.6 -70.3002C-767.9 22.6998 -717.8 104.9 -668.5 184.1C-629.8 246.3 -589.7 310.5 -565.2 379.7C-657.7 296 -730.8 224 -794.5 152.7C-862.2 76.8998 -937 -15.2001 -974.5 -124C-1002.6 -205.5 -995.2 -287.8 -956.1 -355.4C-911.8 -431.9 -834.2 -493.1 -758.2 -549C-656.2 -621.1 -544.3 -684.5 -436.3 -745.9C-320 -811.8 -199.9 -880.1 -91.9 -959C40.4 -1055.1 130.5 -1156.9 175.9 -1261.8C220.2 -1357.5 221.1 -1456.6 217.6 -1523.2Z" stroke="#E92D2F" stroke-width="7.7355" stroke-miterlimit="10"/>
<path d="M581.7 -796C544.1 -778.5 505.8 -761 468.6 -744C306.7 -670.2 138.9 -594.5 -8.40002 -494.3C-65.9 -455.2 -136.7 -400.7 -177.4 -331.3C-203.6 -286.6 -210 -233.7 -194 -182.5C-177.5 -129.8 -147 -82.5 -117.8 -36.6C-101 -10.2 -83.6 17.0999 -69.1 44.9999C-35 110.3 -43.2 192.9 -91.4 259.9C-152.6 345 -252.1 417 -402.9 487.5C-408.1 489.7 -413.3 492.6 -418.3 495.4C-427.8 500.7 -437.7 506.3 -448.5 507.5C-354.6 446.6 -293.3 368.5 -280.8 293C-271.8 238.8 -291.6 184.4 -340.8 126.8C-441.1 -2.20001 -473.3 -125.9 -436.4 -241C-390.2 -385.1 -238.4 -493 -118.9 -557.4C70.7 -659.4 300.2 -737 581.7 -796Z" stroke="#E92D2F" stroke-width="7.7355" stroke-miterlimit="10"/>
</g>
<g opacity="0.881">
<path d="M168.2 -1493C236.8 -1404.7 247.6 -1279.6 198.4 -1157.5C152.8 -1044.2 65.7001 -933.1 -69.5999 -818.2C-151.1 -748.7 -245.4 -682.2 -366 -608.8C-477.7 -540.8 -603.6 -458.3 -694.6 -349.4C-730.4 -306.5 -757.7 -258 -772.4 -208.4C-787.4 -158 -789.3 -106.8 -779.4 -59.9001C-759.9 31.8999 -712.7 112.9 -666.3 191C-629.8 252.3 -592.1 315.7 -569 384C-656.1 301.4 -725 230.4 -784.9 160.1C-848.7 85.3 -919.1 -5.60011 -954.4 -112.8C-980.9 -193.2 -973.9 -274.4 -937.1 -341C-895.4 -416.5 -822.3 -476.8 -750.7 -532C-654.6 -603.2 -549.3 -665.7 -447.6 -726.2C-338.1 -791.2 -224.9 -858.5 -123.3 -936.5C1.30001 -1031.3 86.1 -1131.8 128.9 -1235.2C170.6 -1329.6 171.4 -1427.2 168.2 -1493Z" stroke="#E92D2F" stroke-width="8.0871" stroke-miterlimit="10"/>
<path d="M511.1 -775.6C475.7 -758.3 439.6 -741.1 404.5 -724.3C252.1 -651.5 94 -576.8 -44.7 -477.9C-98.9 -439.3 -165.5 -385.6 -203.9 -317.1C-228.6 -273 -234.6 -220.9 -219.5 -170.3C-204 -118.3 -175.2 -71.6001 -147.8 -26.3001C-131.9 -0.30011 -115.6 26.6999 -101.9 54.1999C-69.8 118.7 -77.5 200.1 -122.9 266.2C-180.5 350.1 -274.2 421.1 -416.3 490.8C-421.2 493 -426.1 495.8 -430.8 498.6C-439.8 503.9 -449.1 509.3 -459.2 510.5C-370.8 450.4 -313 373.4 -301.2 298.9C-292.8 245.4 -311.4 191.7 -357.7 135C-452.2 7.79994 -482.5 -114.2 -447.7 -227.8C-404.2 -370 -261.3 -476.4 -148.7 -540C29.8 -640.8 245.9 -717.4 511.1 -775.6Z" stroke="#E92D2F" stroke-width="8.0871" stroke-miterlimit="10"/>
</g>
<g opacity="0.9048">
<path d="M118.8 -1462.8C183.1 -1375.7 193.2 -1252.3 147.2 -1131.8C104.5 -1020.1 22.7 -910.5 -104.2 -797.2C-180.7 -728.7 -269.1 -663 -382.3 -590.7C-487.1 -523.6 -605.2 -442.3 -690.6 -334.8C-724.2 -292.5 -749.8 -244.7 -763.6 -195.7C-777.7 -146 -779.5 -95.4 -770.1 -49.2C-751.8 41.3 -707.6 121.2 -664 198.3C-629.8 258.8 -594.4 321.3 -572.7 388.6C-654.4 307.2 -719 237.1 -775.3 167.7C-835.1 93.8999 -901.2 4.2 -934.3 -101.5C-959.1 -180.9 -952.6 -260.9 -918 -326.6C-878.9 -401.1 -810.3 -460.6 -743.2 -515C-653.1 -585.2 -554.3 -646.9 -458.8 -706.6C-356.1 -770.7 -249.9 -837.1 -154.6 -914C-37.7 -1007.5 41.8 -1106.6 82 -1208.6C121 -1301.6 121.8 -1397.9 118.8 -1462.8Z" stroke="#E92D2F" stroke-width="8.4387" stroke-miterlimit="10"/>
<path d="M440.4 -755.2C407.2 -738.1 373.3 -721.1 340.4 -704.6C197.4 -632.8 49.1 -559.1 -81 -461.6C-131.8 -423.5 -194.3 -370.6 -230.3 -303C-253.4 -259.5 -259.1 -208.1 -245 -158.2C-230.5 -106.9 -203.5 -60.9 -177.7 -16.2C-162.8 9.39999 -147.5 35.9999 -134.7 63.1999C-104.6 126.8 -111.8 207.1 -154.4 272.3C-208.4 355 -296.3 425.1 -429.6 493.8C-434.2 495.9 -438.8 498.8 -443.2 501.5C-451.6 506.7 -460.3 512.1 -469.9 513.3C-387 454 -332.8 378.1 -321.7 304.6C-313.8 251.8 -331.3 198.9 -374.7 142.9C-463.3 17.3998 -491.8 -102.9 -459.2 -214.9C-418.4 -355.1 -284.3 -460.1 -178.7 -522.8C-11.0999 -622.3 191.7 -697.8 440.4 -755.2Z" stroke="#E92D2F" stroke-width="8.4387" stroke-miterlimit="10"/>
</g>
<g opacity="0.9286">
<path d="M69.3 -1432.6C129.4 -1346.7 138.8 -1225 95.8 -1106.2C55.9 -996 -20.5 -887.9 -139 -776.2C-210.4 -708.6 -293 -643.9 -398.7 -572.5C-496.6 -506.3 -606.8 -426.2 -686.6 -320.1C-717.9 -278.4 -741.9 -231.2 -754.8 -182.9C-767.9 -133.9 -769.6 -84.0001 -760.9 -38.4001C-743.9 50.8999 -702.5 129.7 -661.8 205.7C-629.9 265.3 -596.8 327 -576.6 393.4C-653 313.1 -713.3 244 -765.8 175.6C-821.7 102.8 -883.4 14.3999 -914.3 -89.9001C-937.5 -168.2 -931.4 -247.1 -899.1 -311.9C-862.5 -385.4 -798.5 -444 -735.8 -497.7C-651.6 -566.9 -559.4 -627.8 -470.2 -686.6C-374.3 -749.9 -275.1 -815.3 -186.1 -891.1C-76.9 -983.3 -2.59995 -1081 34.8 -1181.6C71.4 -1273.6 72.1 -1368.6 69.3 -1432.6Z" stroke="#E92D2F" stroke-width="8.7903" stroke-miterlimit="10"/>
<path d="M369.7 -734.8C338.7 -718 307 -701.2 276.3 -684.9C142.7 -614.1 4.20008 -541.4 -117.2 -445.3C-164.7 -407.7 -223 -355.5 -256.6 -288.9C-278.2 -246 -283.5 -195.3 -270.3 -146.1C-256.7 -95.6 -231.5 -50.1 -207.5 -6.10004C-193.6 19.2 -179.3 45.3999 -167.3 72.1999C-139.2 134.9 -145.9 214.1 -185.7 278.4C-236.2 360 -318.3 429.1 -442.7 496.8C-447 498.9 -451.3 501.7 -455.4 504.4C-463.3 509.5 -471.4 514.8 -480.3 516C-402.9 457.5 -352.2 382.6 -341.9 310.2C-334.5 258.2 -350.8 206 -391.4 150.8C-474.2 27.1 -500.7 -91.6 -470.3 -202.1C-432.2 -340.4 -307 -443.9 -208.3 -505.7C-52 -603.7 137.4 -678.2 369.7 -734.8Z" stroke="#E92D2F" stroke-width="8.7903" stroke-miterlimit="10"/>
</g>
<g opacity="0.9524">
<path d="M19.9001 -1402.4C75.7001 -1317.7 84.5001 -1197.7 44.5001 -1080.6C7.40006 -971.9 -63.5999 -865.4 -173.7 -755.2C-240.1 -688.6 -316.8 -624.7 -415.1 -554.4C-506.1 -489.1 -608.5 -410.2 -682.7 -305.6C-711.8 -264.5 -734 -218 -746 -170.3C-758.2 -122 -759.8 -72.8001 -751.7 -27.9001C-735.9 60.0999 -697.4 137.8 -659.6 212.8C-629.9 271.6 -599.2 332.4 -580.4 397.9C-651.4 318.7 -707.4 250.6 -756.2 183.1C-808.1 111.4 -865.5 24.1 -894.2 -78.6C-915.8 -155.8 -910.1 -233.6 -880.1 -297.5C-846.1 -369.9 -786.6 -427.8 -728.3 -480.7C-650.1 -548.9 -564.3 -608.9 -481.5 -667C-392.3 -729.4 -300.2 -793.9 -217.5 -868.6C-116 -959.5 -46.9999 -1055.8 -12.1999 -1155C21.8001 -1245.7 22.5001 -1339.3 19.9001 -1402.4Z" stroke="#E92D2F" stroke-width="9.142" stroke-miterlimit="10"/>
<path d="M299 -714.4C270.2 -697.8 240.8 -681.3 212.2 -665.2C88.1 -595.4 -40.6999 -523.7 -153.5 -428.9C-197.7 -391.8 -251.8 -340.4 -283.1 -274.7C-303.2 -232.4 -308.1 -182.4 -295.8 -133.9C-283.2 -84.1001 -259.8 -39.3001 -237.4 4.19989C-224.5 29.0999 -211.2 54.9998 -200 81.3998C-173.9 143.2 -180.1 221.3 -217.1 284.7C-264 365 -340.3 433.2 -456 499.9C-459.9 502 -464 504.7 -467.8 507.4C-475.1 512.5 -482.7 517.7 -491 518.9C-419 461.3 -372 387.4 -362.4 316C-355.5 264.7 -370.7 213.2 -408.4 158.8C-485.3 36.8 -510 -80.2 -481.7 -189.1C-446.3 -325.4 -329.9 -427.5 -238.2 -488.5C-92.8999 -585.1 83.2001 -658.6 299 -714.4Z" stroke="#E92D2F" stroke-width="9.142" stroke-miterlimit="10"/>
</g>
<g opacity="0.9762">
<path d="M-29.6 -1372.2C22 -1288.7 30.1 -1170.4 -6.90002 -1055C-41.2 -947.9 -106.8 -842.9 -208.5 -734.3C-269.8 -668.6 -340.7 -605.7 -431.5 -536.4C-515.5 -472.1 -610.2 -394.3 -678.7 -291.1C-705.6 -250.6 -726.1 -204.7 -737.2 -157.8C-748.5 -110.2 -749.9 -61.7 -742.4 -17.4C-727.8 69.4 -692.2 145.9 -657.3 219.8C-629.9 277.8 -601.5 337.7 -584.1 402.2C-649.7 324.1 -701.5 257 -746.5 190.5C-794.5 119.8 -847.5 33.7999 -874 -67.5001C-893.9 -143.6 -888.7 -220.3 -861 -283.2C-829.6 -354.6 -774.6 -411.6 -720.8 -463.8C-648.5 -531.1 -569.3 -590.2 -492.7 -647.4C-410.3 -708.9 -325.2 -772.5 -248.7 -846.2C-155 -935.8 -91.2 -1030.8 -59 -1128.6C-27.8 -1217.7 -27.1 -1310 -29.6 -1372.2Z" stroke="#E92D2F" stroke-width="9.4936" stroke-miterlimit="10"/>
<path d="M228.4 -694C201.8 -677.6 174.6 -661.4 148.2 -645.5C33.5 -576.7 -85.5 -505.9 -189.7 -412.6C-230.5 -376.1 -280.6 -325.4 -309.4 -260.6C-328 -218.9 -332.5 -169.6 -321.2 -121.8C-309.5 -72.7001 -287.9 -28.5 -267.2 14.3C-255.3 38.9 -243 64.3998 -232.7 90.3998C-208.6 151.3 -214.3 228.3 -248.5 290.8C-291.8 370 -362.3 437.3 -469.2 503.1C-472.8 505.2 -476.6 507.9 -480.1 510.5C-486.9 515.5 -493.8 520.6 -501.5 521.8C-435 465 -391.5 392.2 -382.7 321.8C-376.4 271.2 -390.4 220.5 -425.2 166.8C-496.3 46.5 -519.1 -68.8 -492.9 -176.2C-460.2 -310.6 -352.7 -411.2 -267.9 -471.3C-133.8 -566.6 28.9 -639 228.4 -694Z" stroke="#E92D2F" stroke-width="9.4936" stroke-miterlimit="10"/>
</g>
<path d="M157.7 -673.6C133.3 -657.5 108.3 -641.4 84.1001 -625.8C-21.0999 -558 -130 -487.9 -226 -396.3C-263.3 -360.1 -309.6 -310.4 -335.9 -246.5C-353.1 -205.5 -356.9 -156.9 -346.7 -109.7C-335.8 -61.4 -316.1 -17.8 -297.2 24.4C-286.2 48.6 -275 73.6998 -265.5 99.3998C-243.3 159.5 -248.9 235.1 -280 296.9C-320.1 374.8 -384.5 441.3 -482.6 506.1C-485.9 508.1 -489.3 510.8 -492.6 513.4C-498.8 518.3 -505.2 523.4 -512.2 524.5C-451.2 468.5 -411.4 396.7 -403.2 327.3C-397.5 277.5 -410.2 227.5 -442.2 174.6C-507.4 56.1 -528.4 -57.6001 -504.4 -163.4C-474.4 -295.8 -375.6 -394.7 -298 -454.2C-174.4 -547.6 -25.2999 -619.4 157.7 -673.6Z" stroke="#E92D2F" stroke-width="9.8452" stroke-miterlimit="10"/>
</g>
<path d="M157.7 -673.6C133.3 -657.5 108.3 -641.4 84.1001 -625.8C-21.0999 -558 -130 -487.9 -226 -396.3C-263.3 -360.1 -309.6 -310.4 -335.9 -246.5C-353.1 -205.5 -356.9 -156.9 -346.7 -109.7C-335.8 -61.4 -316.1 -17.8 -297.2 24.4C-286.2 48.6 -275 73.6998 -265.5 99.3998C-243.3 159.5 -248.9 235.1 -280 296.9C-320.1 374.8 -384.5 441.3 -482.6 506.1C-485.9 508.1 -489.3 510.8 -492.6 513.4C-498.8 518.3 -505.2 523.4 -512.2 524.5C-451.2 468.5 -411.4 396.7 -403.2 327.3C-397.5 277.5 -410.2 227.5 -442.2 174.6C-507.4 56.1 -528.4 -57.6001 -504.4 -163.4C-474.4 -295.8 -375.6 -394.7 -298 -454.2C-174.4 -547.6 -25.2999 -619.4 157.7 -673.6Z" fill="#E92D2F"/>
</svg>
